<svg width="41" height="56" viewBox="0 0 41 56" fill="none" xmlns="http://www.w3.org/2000/svg">
<path d="M0 48.4904V7.34083C0 3.30484 2.92463 0 6.55118 0H23.9528C33.4871 0 38.6052 5.87852 38.6052 15.2081C38.6052 20.0045 36.0315 24.0405 32.6682 25.6198C36.7627 27.3746 40.0675 31.1766 40.0675 39.1609C40.0675 49.3386 34.1305 55.802 21.9055 55.802H6.58043C2.95388 55.8313 0 52.5557 0 48.4904ZM9.82677 9.68054V21.7885H22.6367C26.6727 21.7885 28.7784 19.6828 28.7784 15.7345C28.7784 11.4353 26.7897 9.68054 22.0517 9.68054H9.82677ZM22.7244 46.3262C27.4038 46.3262 30.1822 42.8751 30.1822 38.342C30.1822 33.4578 27.4038 31.2643 22.8706 31.2643H9.82677V46.3262H22.7244Z" fill="#F84545"/>
</svg>
