<svg xmlns="http://www.w3.org/2000/svg" viewBox="0 0 124.47 23.2"><defs><style>.cls-1{fill:#f84545;}.cls-2{fill:#fff;}</style></defs><g id="Layer_2" data-name="Layer 2"><g id="Crop_Marks" data-name="Crop Marks"><path class="cls-1" d="M27.15,13.34v.58c0,1.76.83,2.49,2.26,2.49a2.83,2.83,0,0,0,2.25-1,1,1,0,0,1,.77-.37h1a1,1,0,0,1,.79,1.63A6.58,6.58,0,0,1,29.11,19c-3.47,0-5.21-1.76-5.21-5.11C23.9,9.11,26.77,6,31.2,6c3.11,0,4.72,1.66,4.72,5a13.68,13.68,0,0,1-.09,1.51,1,1,0,0,1-1,.91Zm5.56-2.06a4.15,4.15,0,0,0,0-.76c0-1.58-1-2-2.12-2a2.82,2.82,0,0,0-2.31,1.13,1,1,0,0,0,.81,1.59Z"/><path class="cls-1" d="M40,17.85,38.12,7.48a1,1,0,0,1,1-1.18h1.47a1,1,0,0,1,1,.86l.57,4.1a1,1,0,0,0,1.89.31l2.35-4.72a1,1,0,0,1,.9-.55h1.25a1,1,0,0,1,.88,1.47L43.85,18.14a1,1,0,0,1-.88.53H41A1,1,0,0,1,40,17.85Z"/><path class="cls-1" d="M50.43,17.49,52.27,7.12a1,1,0,0,1,1-.82h1.24a1,1,0,0,1,1,1.17L53.64,17.84a1,1,0,0,1-1,.83H51.42A1,1,0,0,1,50.43,17.49ZM52.87,3.64l.18-1a1,1,0,0,1,1-.83h1.23a1,1,0,0,1,1,1.17l-.18,1a1,1,0,0,1-1,.83H53.86A1,1,0,0,1,52.87,3.64Z"/><path class="cls-1" d="M64.81,18.67l.25-1.51A4.59,4.59,0,0,1,61.29,19c-2.67,0-4.35-1.94-4.35-5.18C56.94,9.44,59.5,6,63.3,6a3.79,3.79,0,0,1,2.12.57A1,1,0,0,0,67,5.89l.58-3.29a1,1,0,0,1,1-.83h1.19a1,1,0,0,1,1,1.18L68.1,17.84a1,1,0,0,1-1,.83ZM66,11.58c0-2.24-.73-2.82-2.19-2.82-2.54,0-3.57,2-3.57,4.63,0,2,.86,2.94,2.21,2.94C64.31,16.33,66,14.49,66,11.58Z"/><path class="cls-1" d="M74.54,13.34v.58c0,1.76.83,2.49,2.26,2.49a2.83,2.83,0,0,0,2.25-1,1,1,0,0,1,.77-.37h1a1,1,0,0,1,.79,1.63A6.56,6.56,0,0,1,76.5,19c-3.47,0-5.21-1.76-5.21-5.11,0-4.78,2.87-7.92,7.3-7.92,3.11,0,4.72,1.66,4.72,5a13.68,13.68,0,0,1-.09,1.51,1,1,0,0,1-1,.91Zm5.55-2.06a4.15,4.15,0,0,0,0-.76c0-1.58-1-2-2.11-2a2.82,2.82,0,0,0-2.31,1.13,1,1,0,0,0,.81,1.59Z"/><path class="cls-1" d="M93.66,18.67a1,1,0,0,1-1-1.18l1.12-6.31a5.52,5.52,0,0,0,.11-1.06c0-1.11-.56-1.38-1.79-1.38-1.71,0-2.72.95-3,2.84L88,17.84a1,1,0,0,1-1,.83H85.74a1,1,0,0,1-1-1.18L86.58,7.12a1,1,0,0,1,1-.82h1.08a1,1,0,0,1,1,1.18l-.11.63A5,5,0,0,1,93.9,6C96,6,97.34,7.08,97.34,9.14a5.22,5.22,0,0,1-.08.95L95.9,17.84a1,1,0,0,1-1,.83Z"/><path class="cls-1" d="M107.72,10.72c0-.12,0-.22,0-.35,0-1.23-.88-1.68-2-1.68-1.73,0-3.26,1.28-3.26,4.67,0,2.19.78,2.89,1.83,2.89a2.77,2.77,0,0,0,2.57-1.52,1,1,0,0,1,.88-.54h1.08a1,1,0,0,1,.87,1.51,6.82,6.82,0,0,1-5.85,3.3c-2.87,0-4.68-1.76-4.68-5.16,0-5.31,2.92-7.87,7.07-7.87,3,0,4.8,1.58,4.8,4.15a4,4,0,0,1,0,.6Z"/><path class="cls-1" d="M115.69,13.34v.58c0,1.76.83,2.49,2.26,2.49a2.81,2.81,0,0,0,2.25-1A1,1,0,0,1,121,15h1a1,1,0,0,1,.79,1.63,6.58,6.58,0,0,1-5.1,2.35c-3.47,0-5.2-1.76-5.2-5.11,0-4.78,2.86-7.92,7.29-7.92,3.12,0,4.73,1.66,4.73,5a13.65,13.65,0,0,1-.1,1.51,1,1,0,0,1-1,.91Zm5.56-2.06a4.15,4.15,0,0,0,0-.76c0-1.58-1-2-2.12-2a2.82,2.82,0,0,0-2.31,1.13,1,1,0,0,0,.81,1.59Z"/><rect class="cls-1" width="22.03" height="23.2" rx="3.15"/><path class="cls-2" d="M3.85,18.87V4.8A2.51,2.51,0,0,1,6.36,2.29H13c3.64,0,5.6,2,5.6,5.21a3.87,3.87,0,0,1-2.27,3.56c1.57.6,2.83,1.9,2.83,4.63,0,3.48-2.27,5.69-6.94,5.69H6.36A2.51,2.51,0,0,1,3.85,18.87ZM7.6,5.6V9.74h4.9c1.54,0,2.35-.72,2.35-2.07S14.1,5.6,12.28,5.6Zm4.93,12.53a2.64,2.64,0,0,0,2.85-2.73c0-1.67-1.06-2.41-2.8-2.41h-5v5.14Z"/></g></g></svg>