<svg width="364" height="68" viewBox="0 0 364 68" fill="none" xmlns="http://www.w3.org/2000/svg">
<path d="M79.4038 39.1631V40.8594C79.4038 46.0068 81.8313 48.1417 86.0135 48.1417C88.6457 48.1417 91.1901 47.0304 92.5939 45.1586C93.1204 44.4567 93.9685 44.0765 94.8459 44.0765H97.7413C100.198 44.0765 101.631 46.9719 100.052 48.8144C96.3082 53.2598 91.0146 55.6873 85.1361 55.6873C74.9876 55.6873 69.8988 50.5399 69.8988 40.7717C69.8988 26.7919 78.2925 17.6086 91.2193 17.6086C100.344 17.6086 105.053 22.4634 105.053 32.0855C105.053 33.4601 104.965 34.9224 104.79 36.4724C104.614 37.964 103.386 39.1339 101.865 39.1339H79.4038V39.1631ZM95.6648 33.1384C95.811 32.3195 95.811 31.5883 95.811 30.9449C95.811 26.324 92.8571 25.2126 89.64 25.2126C86.6862 25.2126 84.4634 26.4994 82.8549 28.5174C81.3633 30.3892 82.8549 33.1676 85.2531 33.1676H95.6648V33.1384Z" fill="white"/>
<path d="M116.985 52.3532L111.487 22.0248C111.165 20.2408 112.54 18.5737 114.382 18.5737H118.682C120.144 18.5737 121.372 19.6558 121.577 21.0889L123.244 33.0799C123.654 35.946 127.485 36.5602 128.772 33.9865L135.645 20.1823C136.142 19.1879 137.165 18.5445 138.277 18.5445H141.932C144.155 18.5445 145.559 20.9134 144.506 22.8729L128.245 53.2014C127.748 54.1665 126.754 54.7514 125.672 54.7514H119.881C118.448 54.7514 117.219 53.7278 116.985 52.3532Z" fill="white"/>
<path d="M147.489 51.3004L152.841 20.9719C153.075 19.5681 154.304 18.5445 155.737 18.5445H159.334C161.147 18.5445 162.551 20.1822 162.229 21.9955L156.877 52.324C156.643 53.7278 155.415 54.7514 153.982 54.7514H150.385C148.571 54.7514 147.168 53.1136 147.489 51.3004ZM154.625 10.7942L155.152 7.75255C155.386 6.34873 156.614 5.3251 158.047 5.3251H161.674C163.487 5.3251 164.862 6.9629 164.569 8.74693L164.043 11.7885C163.809 13.1924 162.58 14.216 161.147 14.216H157.521C155.678 14.216 154.304 12.5782 154.625 10.7942Z" fill="white"/>
<path d="M189.546 54.7514L190.277 50.3352C187.323 54.0203 183.667 55.7166 179.251 55.7166C171.442 55.7166 166.529 50.0428 166.529 40.567C166.529 27.7571 174.016 17.6086 185.129 17.6086C187.557 17.6086 189.633 18.1643 191.33 19.2756C193.114 20.4455 195.483 19.4803 195.863 17.3746L197.559 7.75255C197.793 6.34873 199.021 5.3251 200.454 5.3251H203.906C205.719 5.3251 207.093 6.9629 206.801 8.77617L199.168 52.324C198.934 53.7278 197.705 54.7514 196.272 54.7514H189.546ZM193.143 34.0158C193.143 27.4646 191.008 25.7683 186.738 25.7683C179.309 25.7683 176.297 31.7346 176.297 39.3094C176.297 45.1294 178.783 47.9078 182.76 47.9078C188.083 47.9078 193.143 42.5265 193.143 34.0158Z" fill="white"/>
<path d="M218.002 39.1631V40.8594C218.002 46.0068 220.43 48.1418 224.612 48.1418C227.244 48.1418 229.789 47.0304 231.192 45.1586C231.719 44.4567 232.567 44.0765 233.444 44.0765H236.34C238.796 44.0765 240.229 46.9719 238.65 48.8144C234.877 53.2599 229.613 55.7166 223.735 55.7166C213.586 55.7166 208.497 50.5692 208.497 40.8009C208.497 26.8212 216.891 17.6378 229.818 17.6378C238.943 17.6378 243.651 22.4927 243.651 32.1148C243.651 33.4893 243.564 34.9517 243.388 36.5017C243.213 37.9933 241.984 39.1631 240.463 39.1631H218.002ZM234.234 33.1384C234.38 32.3195 234.38 31.5883 234.38 30.9449C234.38 26.324 231.426 25.2126 228.209 25.2126C225.255 25.2126 223.033 26.4995 221.424 28.5175C219.933 30.3892 221.424 33.1676 223.822 33.1676H234.234V33.1384Z" fill="white"/>
<path d="M273.921 54.7514C272.108 54.7514 270.704 53.1136 271.026 51.3003L274.301 32.8167C274.535 31.6468 274.594 30.6232 274.594 29.7165C274.594 26.4702 272.985 25.6805 269.359 25.6805C264.358 25.6805 261.404 28.4882 260.468 33.9865L257.222 52.2947C256.988 53.6985 255.759 54.7222 254.326 54.7222H250.729C248.916 54.7222 247.512 53.0844 247.834 51.2711L253.186 20.9426C253.42 19.5388 254.648 18.5152 256.081 18.5152H259.24C261.053 18.5152 262.457 20.1822 262.135 21.9663L261.813 23.8088C264.767 19.7728 268.803 17.5501 274.623 17.5501C280.648 17.5501 284.684 20.7964 284.684 26.8211C284.684 27.6985 284.625 28.6637 284.45 29.6288L280.472 52.2947C280.238 53.6985 279.01 54.7222 277.577 54.7222H273.921V54.7514Z" fill="white"/>
<path d="M315.042 31.5006C315.042 31.1204 315.129 30.8279 315.129 30.477C315.129 26.8797 312.556 25.5636 309.251 25.5636C304.162 25.5636 299.687 29.3071 299.687 39.2509C299.687 45.6558 301.969 47.7031 305.039 47.7031C308.256 47.7031 311.123 46.153 312.556 43.2576C313.024 42.2925 314.047 41.6783 315.129 41.6783H318.288C320.54 41.6783 322.002 44.1643 320.832 46.0945C317.323 52.0023 310.83 55.7166 303.723 55.7166C295.33 55.7166 290.036 50.5692 290.036 40.6547C290.036 25.1249 298.576 17.6378 310.713 17.6378C319.458 17.6378 324.751 22.2588 324.751 29.7751C324.751 30.36 324.751 30.9449 324.664 31.5298H315.042V31.5006Z" fill="white"/>
<path d="M338.351 39.1631V40.8594C338.351 46.0068 340.778 48.1417 344.961 48.1417C347.593 48.1417 350.137 47.0304 351.541 45.1586C352.067 44.4567 352.916 44.0765 353.793 44.0765H356.688C359.145 44.0765 360.578 46.9719 358.999 48.8144C355.255 53.2598 349.962 55.6873 344.083 55.6873C333.935 55.6873 328.846 50.5399 328.846 40.7717C328.846 26.7919 337.24 17.6086 350.166 17.6086C359.291 17.6086 364 22.4634 364 32.0855C364 33.4601 363.912 34.9224 363.737 36.4724C363.561 37.964 362.333 39.1339 360.812 39.1339H338.351V39.1631ZM354.612 33.1384C354.758 32.3195 354.758 31.5883 354.758 30.9449C354.758 26.324 351.804 25.2126 348.587 25.2126C345.633 25.2126 343.411 26.4994 341.802 28.5174C340.31 30.3892 341.802 33.1676 344.2 33.1676H354.612V33.1384Z" fill="white"/>
<path d="M54.8446 68H9.15529C4.09808 68 0 63.8672 0 58.7672V9.23276C0 4.13276 4.09808 0 9.15529 0H54.8446C59.9018 0 63.9998 4.13276 63.9998 9.23276V58.7379C64.0289 63.8672 59.9308 68 54.8446 68Z" fill="white"/>
<path d="M12 54.4904V13.3408C12 9.30484 14.9246 6 18.5512 6H35.9528C45.4871 6 50.6052 11.8785 50.6052 21.2081C50.6052 26.0045 48.0315 30.0405 44.6682 31.6198C48.7627 33.3746 52.0675 37.1766 52.0675 45.1609C52.0675 55.3386 46.1305 61.802 33.9055 61.802H18.5804C14.9539 61.8313 12 58.5557 12 54.4904ZM21.8268 15.6805V27.7885H34.6367C38.6727 27.7885 40.7784 25.6828 40.7784 21.7345C40.7784 17.4353 38.7897 15.6805 34.0517 15.6805H21.8268ZM34.7244 52.3262C39.4038 52.3262 42.1822 48.8751 42.1822 44.342C42.1822 39.4578 39.4038 37.2643 34.8706 37.2643H21.8268V52.3262H34.7244Z" fill="#F84545"/>
</svg>
